<svg preserveAspectRatio="none" overflow="visible" style="display: block;" width="15" height="7.36396" viewBox="0 0 15 7.36396" fill="none" xmlns="http://www.w3.org/2000/svg">
<path id="Arrow 4" d="M0.5 3.18198C0.223858 3.18198 0 3.40584 0 3.68198C0 3.95812 0.223858 4.18198 0.5 4.18198V3.68198V3.18198ZM14.8536 4.03553C15.0488 3.84027 15.0488 3.52369 14.8536 3.32843L11.6716 0.146447C11.4763 -0.0488155 11.1597 -0.0488155 10.9645 0.146447C10.7692 0.341709 10.7692 0.658291 10.9645 0.853554L13.7929 3.68198L10.9645 6.51041C10.7692 6.70567 10.7692 7.02225 10.9645 7.21751C11.1597 7.41278 11.4763 7.41278 11.6716 7.21751L14.8536 4.03553ZM0.5 3.68198V4.18198H14.5V3.68198V3.18198H0.5V3.68198Z" fill="black"/>
</svg>
