<svg preserveAspectRatio="none" overflow="visible" style="display: block;" width="20" height="20" viewBox="0 0 20 20" fill="none" xmlns="http://www.w3.org/2000/svg">
<g id="Group 17">
<circle id="Ellipse 1" cx="10" cy="10" r="9.75" stroke="#741A14" stroke-width="0.5"/>
<path id="Arrow 2" d="M10.3819 6C10.3819 5.78909 10.2109 5.61812 10 5.61812C9.78909 5.61812 9.61812 5.78909 9.61812 6L10 6L10.3819 6ZM9.72997 13.27C9.8791 13.4192 10.1209 13.4192 10.27 13.27L12.7003 10.8398C12.8494 10.6906 12.8494 10.4488 12.7003 10.2997C12.5512 10.1506 12.3094 10.1506 12.1602 10.2997L10 12.4599L7.83975 10.2997C7.69062 10.1506 7.44883 10.1506 7.29969 10.2997C7.15056 10.4488 7.15056 10.6906 7.29969 10.8398L9.72997 13.27ZM10 6L9.61812 6L9.61812 13L10 13L10.3819 13L10.3819 6L10 6Z" fill="#741A14"/>
</g>
</svg>
